<svg width="51" height="39" viewBox="0 0 51 39" fill="none" xmlns="http://www.w3.org/2000/svg">
<path d="M34.4583 17.2447C34.1267 17.0572 33.7058 17.174 33.5182 17.5056C33.3307 17.8372 33.4475 18.2591 33.7796 18.4466C34.289 18.7366 34.5999 19.0603 34.8054 19.3947C33.9547 19.6935 33.2006 19.8164 32.5344 19.8164C31.5593 19.8155 30.7617 19.5581 30.0891 19.1638C29.4184 18.7685 28.8759 18.2281 28.4646 17.6674C27.7867 16.7433 26.9046 15.9201 25.865 15.3195C24.8269 14.7208 23.6259 14.3467 22.3369 14.3467C21.2067 14.3459 20.0155 14.6368 18.8353 15.285C18.3528 15.5494 17.9346 15.8589 17.5703 16.1967C16.1345 16.7494 14.8974 16.9484 13.8508 16.9484C12.3597 16.9484 11.2459 16.5477 10.5012 16.1542C10.1294 15.9578 9.85126 15.7624 9.67127 15.621C9.58102 15.5493 9.51528 15.4927 9.47444 15.4556L9.432 15.4149L9.42533 15.4087H9.42503C9.16057 15.1372 8.72547 15.1302 8.45175 15.3936C8.17762 15.658 8.16965 16.0949 8.43411 16.369C8.47256 16.408 8.947 16.8935 9.85524 17.3746C10.2528 17.5851 10.7401 17.7919 11.303 17.9609C11.1535 18.1714 10.9493 18.4791 10.7268 18.8708C10.2992 19.6252 9.80793 20.6838 9.55761 21.9325C9.4829 22.3057 9.72525 22.6692 10.0989 22.7443C10.4725 22.8185 10.8364 22.5762 10.9107 22.2023C11.1207 21.1508 11.5496 20.216 11.9272 19.5518C12.1156 19.2194 12.2903 18.9549 12.4159 18.7771C12.4787 18.6878 12.5291 18.6197 12.5627 18.5755C12.5795 18.5542 12.5923 18.5374 12.5999 18.5277L12.6079 18.5179L12.6088 18.517L12.6092 18.5161C12.6728 18.4383 12.7153 18.3508 12.7395 18.2588C13.0907 18.302 13.4594 18.3286 13.8508 18.3277C14.5763 18.3286 15.3709 18.2429 16.2266 18.0483C15.8024 18.9628 15.6279 19.917 15.6274 20.7916C15.6291 21.6724 15.7968 22.4719 16.0957 23.1086C16.2587 23.4536 16.6704 23.6003 17.0149 23.4376C17.3593 23.2749 17.5066 22.8628 17.3434 22.5188V22.5179C17.1515 22.1182 17.0055 21.4886 17.0078 20.7916C17.0073 20.0399 17.1696 19.2122 17.5588 18.4569C17.95 17.7017 18.5576 17.0128 19.499 16.4945C20.4926 15.9507 21.441 15.7277 22.3369 15.7269C23.3569 15.7269 24.3179 16.0215 25.1756 16.5149C26.0325 17.0092 26.7812 17.7052 27.3515 18.4833C27.8533 19.1679 28.5247 19.8435 29.3887 20.3529C30.2509 20.8623 31.3096 21.1974 32.5344 21.1965C33.3448 21.1965 34.2252 21.0497 35.1706 20.7277L35.1728 20.7772C35.1728 21.1151 35.1202 21.4228 35.0676 21.6404C35.0415 21.7491 35.0154 21.835 34.9973 21.8907C34.988 21.9181 34.981 21.9384 34.9766 21.9498L34.9726 21.9605L34.9722 21.9622H34.9726C34.8328 22.3151 35.0049 22.7149 35.3577 22.8563C35.7114 22.9978 36.1133 22.8253 36.2549 22.4716C36.2725 22.4221 36.5503 21.7332 36.5529 20.7771C36.5529 20.2288 36.4569 19.585 36.1381 18.9493C35.8216 18.3139 35.275 17.7037 34.4583 17.2447Z" fill="#FCBE23"/>
<path d="M35.9971 12.6364C34.1003 12.6364 32.5769 11.9377 31.5233 11.0233C30.9975 10.567 30.5933 10.0567 30.3277 9.56863C30.0606 9.07955 29.9381 8.61437 29.9399 8.26594C29.9399 7.88473 29.6308 7.57614 29.2497 7.57614C28.8686 7.57614 28.5598 7.88473 28.5598 8.26594C28.5616 8.91499 28.7645 9.58009 29.1156 10.2274C29.4831 10.9014 30.0199 11.5557 30.7022 12.1323C30.5646 12.3233 30.3749 12.5693 30.1326 12.8327C29.6069 13.4067 28.849 14.0425 27.9443 14.3635C27.5853 14.4917 27.3982 14.8871 27.5265 15.2452C27.6547 15.6043 28.0497 15.7918 28.4083 15.6634C29.6362 15.2222 30.5554 14.4175 31.1789 13.7329C31.4566 13.4269 31.6728 13.1475 31.8325 12.9238C32.9742 13.5826 34.3843 14.0177 35.9973 14.0168C36.378 14.0168 36.6876 13.7082 36.6876 13.327C36.6873 12.946 36.3778 12.6364 35.9971 12.6364Z" fill="#FCBE23"/>
<path d="M31.3966 26.1316C30.1055 26.1316 29.0797 25.8822 28.2554 25.5011C27.0217 24.928 26.2214 24.0473 25.7177 23.169C25.4666 22.7312 25.2933 22.2953 25.184 21.9123C25.0744 21.5312 25.0314 21.1969 25.0323 20.9944C25.0323 20.6133 24.7237 20.3045 24.3425 20.3045C23.9609 20.3045 23.6523 20.6132 23.6523 20.9944C23.6523 21.243 23.6819 21.518 23.7426 21.8204C23.8478 22.3474 24.0481 22.9568 24.3727 23.5847C24.8596 24.5257 25.6325 25.5125 26.7875 26.2626C27.0766 26.4517 27.3897 26.6234 27.7266 26.7772C27.7792 27.0036 27.8522 27.4068 27.8517 27.8932C27.8517 28.247 27.8136 28.6414 27.7067 29.0456C27.5997 29.4497 27.4255 29.8619 27.1486 30.2624C26.9316 30.5764 27.0098 31.0061 27.3234 31.2228C27.6369 31.4395 28.0666 31.3617 28.2834 31.0486C28.6601 30.5039 28.8988 29.9379 29.0412 29.3984C29.1841 28.8581 29.2318 28.3443 29.2318 27.8932C29.2318 27.6677 29.2194 27.459 29.2008 27.268C29.8659 27.4228 30.5945 27.513 31.3966 27.5121C31.7774 27.5121 32.0865 27.2026 32.0865 26.8214C32.0865 26.4411 31.7774 26.1316 31.3966 26.1316Z" fill="#FCBE23"/>
<path d="M40.7704 15.7653C40.4286 15.4709 40.0599 15.2294 39.6707 15.0578C39.282 14.8863 38.8712 14.7837 38.4507 14.7837C38.0696 14.7837 37.7605 15.0923 37.7605 15.4735C37.7605 15.8556 38.0696 16.1641 38.4507 16.1641C38.7045 16.1633 39.0255 16.2517 39.3629 16.4471C39.8687 16.7372 40.3946 17.2581 40.777 17.9107C41.1617 18.5624 41.4053 19.3381 41.4049 20.1393C41.4018 21.021 41.1241 21.9407 40.3725 22.8552C40.1297 23.1497 40.1713 23.5839 40.4653 23.827C40.7589 24.0694 41.194 24.0278 41.4368 23.7342C42.3839 22.5915 42.788 21.3242 42.7849 20.1393C42.7849 19.4194 42.6408 18.7306 42.3985 18.1027C42.034 17.1615 41.4535 16.356 40.7704 15.7653Z" fill="#FCBE23"/>
<path d="M16.7417 12.0863V12.0854C17.2157 11.5238 17.891 11.0834 18.6608 10.7872C19.4293 10.49 20.2871 10.3414 21.0896 10.3423C21.8714 10.3405 22.5992 10.4847 23.133 10.7332C23.4793 10.8924 23.8891 10.742 24.0492 10.3954C24.2088 10.0496 24.0576 9.64016 23.7119 9.47999C22.9408 9.12538 22.0347 8.96262 21.0897 8.96182C20.1196 8.96182 19.1074 9.13693 18.1647 9.49852C17.2243 9.8611 16.3483 10.4148 15.6882 11.1939C15.4419 11.4848 15.4781 11.9207 15.7691 12.1667C16.0599 12.4135 16.4954 12.3763 16.7417 12.0863Z" fill="#FCBE23"/>
<path d="M47.9751 10.0922L47.9761 10.094L47.9751 10.0922Z" fill="#FCBE23"/>
<path d="M33.4851 33.1313V33.1331H33.4841L33.4851 33.1313Z" fill="#FCBE23"/>
<path d="M49.0293 14.7641C48.9073 14.6403 48.7764 14.5227 48.6438 14.4069C48.7132 14.0204 48.7534 13.6269 48.7534 13.2272C48.7538 12.1677 48.5014 11.0888 47.9757 10.093C47.3747 8.95131 46.4846 8.04566 45.4455 7.43197C44.7186 7.00215 43.9192 6.71568 43.0905 6.5821C42.8894 5.8667 42.574 5.18567 42.1504 4.5676C41.4452 3.53823 40.4423 2.68577 39.2152 2.15774C38.3375 1.78012 37.4164 1.59883 36.5118 1.59883C36.5118 1.59883 36.4839 1.59794 36.4331 1.60242C35.2843 1.61577 34.1661 1.91728 33.1769 2.46823C32.79 2.00215 32.3425 1.58738 31.8446 1.23805C30.7533 0.471353 29.4188 0.0167345 27.991 0.00258995C27.9745 0.00169346 27.9547 0.000896486 27.9304 0C27.9273 0 27.9242 0 27.9208 0H27.9199H27.919H27.9186C27.9164 0 27.9142 0 27.912 0C27.8987 0 27.8828 0.000896696 27.8625 0.00169357C26.6192 0.0114553 25.4443 0.35461 24.4405 0.948781C24.0054 1.20528 23.6084 1.51387 23.244 1.85702C22.2041 1.20876 20.9752 0.830246 19.6663 0.82407L19.6615 0.823273H19.6306C19.6297 0.823273 19.6292 0.823273 19.6284 0.823273C19.6266 0.823273 19.6248 0.823273 19.6227 0.823273C19.6067 0.823273 19.5868 0.82407 19.5616 0.825863C18.1692 0.839111 16.8634 1.27072 15.7868 2.00295C15.1629 2.42659 14.6168 2.95103 14.1653 3.55138C13.594 3.39669 12.9976 3.31272 12.3881 3.31272C11.881 3.31272 11.3667 3.37019 10.8548 3.48693C9.34686 3.83268 8.05891 4.65954 7.13593 5.76411H7.13643C6.48867 6.53787 6.0213 7.4505 5.7648 8.43484C4.78136 8.76833 3.85459 9.32724 3.07943 10.1168C3.07903 10.1177 3.07814 10.1186 3.07724 10.1195C1.77723 11.4451 1.1228 13.1793 1.1233 14.9012V14.9038V14.9074C1.1233 14.9074 1.1233 14.9091 1.1233 14.9109V14.9294H1.1237C1.12539 15.528 1.20637 16.125 1.36425 16.7051C0.478027 17.8912 0.0004985 19.3317 4.51735e-07 20.806C-0.000397987 21.8973 0.262771 23.0071 0.809627 24.0303C1.42422 25.1791 2.32808 26.089 3.37955 26.7054C4.11706 27.1378 4.92669 27.4236 5.7654 27.558C6.21205 28.7581 6.97785 29.7936 7.95771 30.5603C9.12324 31.4739 10.5936 32.0142 12.169 32.0142C12.3327 32.0142 12.4958 32.009 12.6589 31.9966H12.6629H12.6651H12.6656H12.666C13.3614 31.9462 14.0278 31.7897 14.6486 31.5482C15.0612 32.2096 15.5797 32.7942 16.1821 33.2763C17.3472 34.2092 18.8289 34.7664 20.4172 34.7735C20.4229 34.7744 20.4277 34.7744 20.4327 34.7744C20.4381 34.7744 20.4433 34.7744 20.4483 34.7744H20.4491C20.4496 34.7744 20.4496 34.7744 20.4496 34.7744H20.4509H20.458C20.4603 34.7744 20.4612 34.7744 20.4634 34.7744L20.4806 34.7735H20.4855C20.6124 34.7726 20.7398 34.7673 20.8666 34.7594H20.8684L20.9431 34.7576C21.5117 34.7159 22.0609 34.6054 22.5814 34.4339C23.2371 35.4076 24.1502 36.2291 25.28 36.774H25.2795C26.2328 37.2338 27.2498 37.454 28.2479 37.454C29.2197 37.454 30.1703 37.2427 31.0423 36.8518C32.3096 38.1977 34.0965 39.006 36.0185 39.0079C36.44 39.0079 36.8662 38.969 37.2925 38.8885C38.9299 38.5808 40.3329 37.7043 41.3146 36.5078H41.3142C41.9553 35.7288 42.4165 34.8091 42.6633 33.8168C43.7956 33.7054 44.9192 33.3109 45.9123 32.6123C46.8573 31.949 47.5896 31.0823 48.0803 30.1149C48.5712 29.1483 48.8241 28.0816 48.8241 27.0054C48.8241 26.2883 48.7074 25.5683 48.4779 24.8741C49.0673 24.394 49.5885 23.8085 50.0042 23.1232C50.6764 22.0177 51 20.7849 51 19.5733C50.9997 17.8019 50.313 16.0641 49.0293 14.7641ZM47.9398 21.869C47.246 23.0115 46.1277 23.7226 44.906 23.934C44.5302 23.9985 44.2781 24.3558 44.3426 24.7307C44.4071 25.1066 44.764 25.3586 45.1395 25.2941C45.4203 25.2463 45.6967 25.1764 45.9677 25.0881C46.263 25.6983 46.4086 26.3527 46.4086 27.0053C46.409 27.7031 46.2441 28.3964 45.9267 29.0216C45.6087 29.647 45.14 30.2031 44.5245 30.6365C43.7494 31.1795 42.8695 31.4387 41.9926 31.4395C41.9241 31.4395 41.8555 31.4342 41.787 31.4307C41.7725 31.3158 41.7582 31.2017 41.737 31.0875V31.0867C41.5858 30.2863 41.2745 29.5541 40.8469 28.9183L40.7947 28.8404L40.724 28.7793C40.2008 28.3319 39.507 27.596 38.9715 26.8462C38.7032 26.472 38.4737 26.0935 38.3194 25.7566C38.1632 25.4197 38.0917 25.1251 38.0943 24.951C38.0943 24.8732 38.1058 24.821 38.1187 24.7857C38.1323 24.7512 38.1452 24.7308 38.1722 24.7026C38.4414 24.4337 38.4414 23.9959 38.1722 23.7271C37.9024 23.4575 37.4656 23.4575 37.1962 23.7271V23.7263C37.0283 23.8942 36.9014 24.0967 36.8235 24.309C36.7457 24.5213 36.7143 24.7397 36.7143 24.9511C36.7169 25.4295 36.8615 25.8823 37.0649 26.3315C37.3732 27.0019 37.833 27.6678 38.3296 28.2753C38.7969 28.8466 39.2944 29.3586 39.7396 29.7513C40.046 30.2235 40.2699 30.7559 40.3804 31.3423C40.4268 31.589 40.4524 31.8339 40.456 32.07L40.4564 32.0736C40.4569 32.1055 40.4573 32.1364 40.4573 32.1682C40.4573 33.2118 40.0863 34.1978 39.4483 34.9751C38.8093 35.7517 37.9103 36.3141 36.8461 36.5148C36.5676 36.5671 36.2912 36.5927 36.0192 36.5927C34.5557 36.5936 33.2017 35.8595 32.3882 34.6886C32.8259 34.2447 33.1991 33.7229 33.4847 33.1322C33.8389 32.4 34.0245 31.6252 34.0586 30.8594C34.0754 30.4773 33.7801 30.1555 33.3998 30.1387C33.0187 30.1219 32.6962 30.4172 32.6794 30.7976C32.6533 31.3839 32.5128 31.9711 32.2417 32.5308L32.2413 32.5326C31.9521 33.1321 31.547 33.6336 31.0655 34.0307L31.0629 34.0324C30.2719 34.6816 29.2708 35.0389 28.2481 35.0389C27.6034 35.0389 26.9503 34.8973 26.329 34.5984C25.1784 34.043 24.3794 33.0614 24.0261 31.933L24.0256 31.9321C23.8908 31.504 23.8209 31.0557 23.8209 30.6038C23.8209 29.9592 23.9625 29.3065 24.2626 28.6822C24.4284 28.339 24.2839 27.9269 23.9407 27.7616C23.5976 27.5962 23.185 27.7404 23.0197 28.0835C22.6278 28.8953 22.4408 29.7576 22.4408 30.6039C22.4408 31.0142 22.4878 31.4202 22.5726 31.8182C22.0336 32.1126 21.4256 32.3001 20.7685 32.3489H20.7672C20.6602 32.356 20.554 32.3595 20.4497 32.3595C19.4137 32.3595 18.4538 32.0004 17.6906 31.3903C17.0264 30.8595 16.5175 30.1407 16.2455 29.3084C16.7314 28.8291 17.1338 28.2685 17.4279 27.6467C17.5906 27.3027 17.4433 26.8906 17.0989 26.7278C16.7544 26.5651 16.3427 26.7119 16.18 27.0568C15.9068 27.6352 15.5106 28.1482 15.0228 28.5594C14.3321 29.1421 13.4597 29.518 12.4884 29.5878H12.487C12.3804 29.5949 12.2743 29.5993 12.1695 29.5993C9.97809 29.6002 8.10772 27.9836 7.79196 25.817L7.79116 25.8116L7.79027 25.8062C7.77343 25.7038 7.76148 25.5958 7.75351 25.4844C7.74604 25.3764 7.74215 25.2703 7.74215 25.1643C7.74215 24.8848 7.76825 24.6115 7.81766 24.3454C7.88669 23.9703 7.63906 23.6105 7.26413 23.5405C6.8896 23.4715 6.52971 23.7192 6.46028 24.0942C6.39613 24.4408 6.36206 24.799 6.36206 25.1643L6.36346 25.204C5.74309 25.135 5.14085 24.9379 4.60136 24.6213C3.92083 24.2224 3.34031 23.6396 2.93968 22.8915C2.58327 22.2247 2.41573 21.5119 2.41523 20.807C2.41523 19.8979 2.69743 19.0048 3.21958 18.2584C3.4194 18.5414 3.6472 18.8103 3.9023 19.0605C4.48383 19.6318 5.15848 20.0555 5.87358 20.3313C6.22869 20.4694 6.62842 20.2925 6.76588 19.937C6.90344 19.5814 6.72663 19.1817 6.37153 19.0446C5.82587 18.8332 5.31387 18.5122 4.86941 18.0754L4.86852 18.0746C4.47765 17.6916 4.17384 17.2548 3.9549 16.7869C3.67769 16.1944 3.53843 15.5514 3.53843 14.9077C3.53883 13.7872 3.95759 12.6738 4.80258 11.8098C5.52106 11.0785 6.42542 10.6504 7.36533 10.5222H7.36623H7.36712L7.36971 10.5213C7.56834 10.4948 7.76815 10.4806 7.96887 10.4815C9.08898 10.4824 10.2045 10.9017 11.0681 11.7462C11.3405 12.0123 11.7773 12.0079 12.044 11.7356C12.3106 11.4633 12.3058 11.0264 12.0334 10.7601C10.9345 9.68384 9.50953 9.1338 8.08212 9.10641C8.24488 8.4458 8.55527 7.8321 8.98857 7.31473C9.58812 6.59844 10.4129 6.06782 11.3948 5.8414C11.7283 5.7653 12.0608 5.72825 12.3879 5.72825C12.9663 5.72825 13.5284 5.8432 14.0478 6.05367C13.9001 6.56746 13.8188 7.10963 13.8188 7.66934C13.8188 8.05044 14.1279 8.35914 14.509 8.35914C14.8901 8.35914 15.1988 8.05054 15.1988 7.66934C15.1988 7.06531 15.3204 6.48877 15.5376 5.96522C15.8709 5.16575 16.4343 4.48303 17.1431 4.00102C17.8533 3.51911 18.7054 3.2396 19.6295 3.23871C20.959 3.2396 22.1468 3.82152 22.9608 4.74919L22.9622 4.75008C23.6466 5.52913 24.0592 6.54793 24.0597 7.66924C24.0597 8.05035 24.3683 8.35904 24.7499 8.35904C25.1311 8.35904 25.4397 8.05045 25.4397 7.66924C25.4402 6.39493 25.028 5.21167 24.3298 4.25383C24.6871 3.75867 25.1426 3.33941 25.6696 3.02813C26.3293 2.63816 27.0952 2.41533 27.9194 2.41533C28.8661 2.41533 29.7371 2.71068 30.4566 3.2157C31.176 3.71972 31.7394 4.43342 32.0572 5.26556L32.0569 5.26476C32.2444 5.75733 32.3474 6.28706 32.3478 6.84597C32.3478 7.22707 32.6565 7.53586 33.0377 7.53586C33.4188 7.53586 33.7279 7.22717 33.7279 6.84597C33.7279 6.2764 33.6425 5.72635 33.4895 5.20639C34.3066 4.44498 35.3913 4.01427 36.5105 4.01427C37.095 4.01427 37.6876 4.13101 38.2606 4.37684C39.0597 4.7209 39.7013 5.26825 40.1589 5.93504C40.6161 6.60093 40.8858 7.38535 40.9315 8.19538C40.9358 8.27855 40.9385 8.36252 40.9385 8.44649C40.938 9.031 40.8226 9.62278 40.5769 10.1958C40.4264 10.5461 40.5879 10.9519 40.938 11.1022C41.2883 11.2534 41.6941 11.0907 41.8445 10.7405C42.1005 10.1462 42.2477 9.52985 42.2976 8.91615C42.9742 8.96127 43.6331 9.16637 44.2167 9.51132C44.883 9.90577 45.4499 10.4805 45.8385 11.2181V11.2189C46.1786 11.8628 46.3378 12.549 46.3382 13.2274C46.3382 13.5386 46.3023 13.8463 46.2365 14.1479C45.8199 13.987 45.3923 13.8764 44.9612 13.8155C44.5839 13.7624 44.2352 14.0251 44.1821 14.4035C44.129 14.7804 44.3917 15.1296 44.7693 15.1827C45.2022 15.2438 45.629 15.3685 46.0383 15.5612C46.1109 15.6788 46.2178 15.777 46.3545 15.8353C46.4399 15.8716 46.5283 15.8893 46.6159 15.8901C46.8705 16.0599 47.1023 16.2501 47.3092 16.4606L47.2999 16.4509L47.311 16.4624C48.1373 17.2972 48.5848 18.4248 48.5844 19.5735C48.5845 20.3576 48.3776 21.1492 47.9398 21.869Z" fill="#FCBE23"/>
</svg>
