<svg width="25" height="25" viewBox="0 0 25 25" fill="none" xmlns="http://www.w3.org/2000/svg">
<path d="M12.4999 12.5001C14.4053 12.5001 15.9499 10.9554 15.9499 9.05005C15.9499 7.14467 14.4053 5.60005 12.4999 5.60005C10.5945 5.60005 9.04993 7.14467 9.04993 9.05005C9.04993 10.9554 10.5945 12.5001 12.4999 12.5001Z" stroke="white" stroke-opacity="0.8" stroke-width="1.5"/>
<path d="M19.3645 21.7C19.1815 18.3748 18.1634 15.95 12.4999 15.95C6.83649 15.95 5.8184 18.3748 5.63538 21.7" stroke="white" stroke-opacity="0.8" stroke-width="1.5" stroke-linecap="round"/>
<path d="M6.75 2.53849C8.4415 1.56002 10.4054 1 12.5 1C18.8512 1 24 6.14872 24 12.5C24 18.8512 18.8512 24 12.5 24C6.14872 24 1 18.8512 1 12.5C1 10.4054 1.56002 8.4415 2.53849 6.75" stroke="white" stroke-opacity="0.8" stroke-width="1.5" stroke-linecap="round"/>
</svg>
