<svg width="15" height="24" viewBox="0 0 15 24" fill="none" xmlns="http://www.w3.org/2000/svg">
    <path
        d="M9.45417 8.59015C9.53368 8.61144 9.60505 8.65617 9.68785 8.6716C9.98179 8.72645 10.5081 8.68908 10.8332 8.69577C11.4162 8.70782 12.0114 8.73235 12.5852 8.84023C13.1304 8.94272 13.6435 9.09664 13.9713 9.58456C14.215 9.94714 14.3024 10.458 14.2189 10.8861C14.1143 11.4226 13.7793 11.9902 13.4843 12.4435C13.0737 13.0746 12.5906 13.6647 12.1334 14.2623C11.3795 15.2616 10.6174 16.2545 9.84702 17.241C8.91588 18.4547 8.02469 19.699 7.08553 20.9069C6.66699 21.4451 6.24931 21.9658 5.79126 22.4714C5.56083 22.7258 5.3189 23.0042 5.03382 23.1974C4.90451 23.285 4.69179 23.4076 4.52832 23.3699C4.40775 23.342 4.31867 23.2293 4.25976 23.127C4.18039 22.9892 4.15997 22.8358 4.17006 22.6787C4.20457 22.1399 4.39091 21.5353 4.51379 21.005C4.83649 19.6123 5.22255 18.2312 5.59744 16.8517C5.71038 16.4362 5.83289 16.0228 5.93908 15.6055C6.05686 15.1428 6.23427 14.6333 5.97012 14.1906C5.96043 14.1744 5.95039 14.1583 5.93998 14.1426C5.92955 14.1268 5.91877 14.1112 5.90763 14.0959C5.8965 14.0806 5.88503 14.0656 5.87323 14.0508C5.8614 14.0361 5.84924 14.0216 5.83676 14.0074C5.82428 13.9932 5.81148 13.9793 5.79834 13.9657C5.78521 13.9521 5.77178 13.9388 5.75805 13.9259C5.74431 13.9129 5.73029 13.9002 5.71598 13.8879C5.70167 13.8756 5.68708 13.8636 5.67221 13.852C5.65735 13.8403 5.64222 13.8291 5.62682 13.8181C5.61145 13.8072 5.59582 13.7966 5.57995 13.7864C5.56409 13.7762 5.548 13.7664 5.53166 13.7569C5.51535 13.7474 5.49882 13.7384 5.48208 13.7297C5.46533 13.721 5.4484 13.7127 5.4313 13.7048C5.41417 13.6969 5.39688 13.6894 5.37944 13.6823C5.36197 13.6752 5.34434 13.6685 5.32656 13.6622C5.30881 13.6559 5.2909 13.6501 5.27286 13.6446C4.93223 13.5391 4.41852 13.5723 4.0552 13.5623C3.56018 13.5486 3.07571 13.5143 2.58496 13.4473C2.4057 13.4228 2.22438 13.4024 2.04852 13.3588C1.6445 13.2586 1.18291 12.9642 0.967993 12.6003C0.77837 12.2791 0.758659 11.9079 0.848208 11.552C1.00055 10.9464 1.3814 10.4267 1.74541 9.93145C2.04082 9.52953 2.37498 9.15604 2.69833 8.77712L4.42767 6.76219L6.47559 4.37829C6.98221 3.77979 7.48012 3.16957 8.00174 2.58436C8.1836 2.38029 8.37829 2.18786 8.56384 1.98706C8.93103 1.58969 9.42037 1.01697 9.88081 0.744383C10.0098 0.668045 10.1805 0.59684 10.3321 0.642088C10.4217 0.668842 10.4826 0.73409 10.5239 0.815722C10.7657 1.29313 10.3588 2.55998 10.1926 3.08142C10.0826 3.45758 9.94861 3.82772 9.82143 4.19831L9.25521 5.83861C9.08719 6.31874 8.86435 6.8185 8.79637 7.3244C8.76218 7.57888 8.77486 7.8342 8.90045 8.0639C9.02908 8.29913 9.23544 8.4485 9.45417 8.59015Z"
        fill="url(#paint0_linear_4004_121)" />
    <defs>
        <linearGradient id="paint0_linear_4004_121" x1="7.9189" y1="0.627945" x2="2.25995"
            y2="21.8882" gradientUnits="userSpaceOnUse">
            <stop stop-color="#E7FF11" />
            <stop offset="1" stop-color="#1B9406" />
        </linearGradient>
    </defs>
</svg>